<?xml version="1.0" standalone="no"?>
<!DOCTYPE svg PUBLIC "-//W3C//DTD SVG 20010904//EN"
 "http://www.w3.org/TR/2001/REC-SVG-20010904/DTD/svg10.dtd">
<svg version="1.0" xmlns="http://www.w3.org/2000/svg"
 width="1961.000000pt" height="1961.000000pt" viewBox="0 0 1961.000000 1961.000000"
 preserveAspectRatio="xMidYMid meet">
<metadata>
Created by potrace 1.11, written by Peter Selinger 2001-2013
</metadata>
<g transform="translate(0.000000,1961.000000) scale(0.100000,-0.100000)"
fill="#000000" stroke="none">
<path d="M9755 18844 c-17 -8 -53 -29 -82 -47 -29 -17 -87 -54 -130 -80 -43
-26 -127 -79 -188 -116 -60 -38 -225 -139 -365 -226 -140 -86 -271 -167 -290
-179 -45 -29 -106 -67 -420 -261 -140 -87 -318 -197 -395 -245 -77 -48 -198
-122 -268 -166 -71 -43 -139 -86 -152 -94 -13 -8 -45 -28 -72 -44 -26 -16
-273 -169 -548 -339 -542 -336 -941 -577 -955 -577 -4 0 -10 -3 -12 -7 -1 -5
-16 -15 -33 -24 -16 -8 -165 -94 -330 -189 -165 -95 -313 -181 -330 -190 -16
-10 -86 -50 -155 -90 -69 -41 -183 -104 -255 -140 -158 -81 -198 -103 -205
-111 -3 -3 -32 -20 -65 -39 -77 -43 -532 -305 -652 -376 -109 -64 -197 -143
-251 -224 -45 -67 -99 -190 -108 -245 -3 -21 -8 -47 -10 -59 -6 -31 -4 -6923
2 -6974 8 -65 51 -206 80 -265 101 -200 217 -307 514 -474 19 -11 59 -34 88
-52 29 -17 55 -31 58 -31 3 0 24 -13 47 -28 23 -16 58 -36 77 -46 19 -9 56
-30 82 -46 25 -15 66 -39 90 -53 23 -13 70 -40 103 -59 33 -20 80 -47 105 -60
25 -14 155 -90 290 -168 135 -78 270 -156 300 -172 30 -17 60 -34 65 -38 9 -7
148 -88 245 -142 25 -14 86 -49 135 -78 50 -29 106 -62 125 -72 49 -29 191
-111 215 -125 11 -7 27 -16 35 -20 8 -4 49 -27 90 -51 41 -25 89 -53 105 -62
43 -25 155 -89 190 -110 17 -9 165 -95 330 -190 165 -95 316 -181 335 -192 19
-11 55 -32 80 -48 25 -15 149 -87 275 -159 127 -73 237 -136 245 -142 14 -8
404 -233 490 -282 19 -10 69 -39 110 -63 195 -112 330 -150 525 -147 215 3
436 97 593 252 119 116 191 241 239 407 l28 99 0 2725 c0 2210 -2 2737 -13
2790 -36 178 -121 337 -248 464 -69 69 -127 110 -304 212 -85 49 -164 94 -175
101 -11 7 -26 15 -34 19 -17 9 -229 130 -251 144 -8 5 -60 35 -115 67 -55 32
-109 63 -120 70 -11 7 -26 15 -34 19 -8 4 -64 36 -125 72 -61 35 -302 175
-536 310 -234 135 -438 253 -455 263 -16 11 -37 22 -45 26 -8 4 -64 36 -125
71 -60 36 -200 116 -310 180 -110 63 -243 140 -295 170 -52 30 -108 63 -125
72 -83 48 -165 95 -205 118 -25 14 -74 42 -109 64 -34 21 -64 38 -66 38 -2 0
-36 19 -77 43 -40 24 -93 55 -118 69 -69 39 -424 244 -518 299 -45 27 -85 49
-89 49 -4 0 -14 6 -22 14 -9 7 -36 24 -61 37 -54 28 -155 106 -190 145 -228
257 -227 639 1 888 64 69 273 215 412 286 26 13 29 12 55 -16 34 -38 124 -105
182 -137 42 -22 346 -186 520 -280 41 -22 98 -52 125 -67 28 -15 91 -49 140
-75 50 -26 113 -60 140 -75 71 -39 166 -90 270 -145 50 -26 137 -73 195 -105
58 -31 141 -76 185 -100 148 -79 210 -112 250 -135 22 -12 85 -46 140 -75 117
-62 230 -122 300 -160 28 -15 91 -49 140 -75 50 -26 104 -55 120 -65 17 -9 71
-39 120 -65 50 -26 142 -76 205 -110 63 -34 156 -83 205 -110 137 -73 215
-115 270 -145 28 -15 86 -47 130 -70 135 -72 197 -106 265 -142 36 -19 106
-57 155 -83 50 -27 124 -67 165 -90 129 -70 174 -86 248 -86 37 0 88 7 115 15
26 8 140 72 254 143 114 70 215 133 225 138 10 6 93 57 185 114 92 58 202 125
243 151 177 109 559 346 735 455 340 211 612 379 825 509 63 39 117 74 118 78
2 4 7 8 12 8 4 0 99 57 211 126 112 70 260 161 329 204 69 42 240 148 380 235
140 87 292 181 338 209 45 28 95 59 110 68 15 10 41 25 57 34 54 30 159 111
201 156 175 187 254 434 221 693 -27 219 -187 490 -333 565 -45 23 -416 221
-581 311 -40 21 -107 57 -150 80 -43 23 -100 54 -128 69 -27 15 -115 62 -195
105 -150 80 -217 116 -332 179 -160 86 -198 106 -293 156 -55 29 -113 61 -130
70 -16 10 -75 41 -130 70 -55 29 -120 64 -145 78 -25 13 -83 45 -130 70 -47
25 -161 86 -255 137 -93 50 -208 112 -255 137 -47 25 -233 126 -415 223 -181
98 -368 198 -415 223 -47 25 -89 48 -95 52 -5 4 -59 33 -120 65 -201 106 -280
148 -310 165 -16 9 -70 39 -120 65 -49 26 -113 60 -140 75 -47 26 -53 27 -80
14z"/>
<path d="M15048 15695 c-2 -2 -17 -5 -34 -8 -17 -3 -47 -12 -65 -21 -45 -21
-269 -210 -310 -261 -37 -46 -84 -144 -93 -195 -7 -39 -9 -146 -3 -170 2 -8 7
-31 12 -50 25 -109 101 -207 220 -286 81 -53 156 -120 200 -179 52 -69 105
-190 119 -276 8 -46 8 -184 1 -224 -30 -156 -110 -298 -220 -391 -38 -32 -376
-237 -505 -306 -19 -10 -51 -28 -70 -39 -19 -12 -141 -82 -270 -157 -129 -74
-273 -158 -320 -185 -47 -27 -105 -61 -130 -75 -61 -34 -48 -27 -675 -390 -33
-19 -76 -43 -95 -54 -19 -11 -64 -37 -100 -58 -36 -21 -81 -47 -100 -58 -19
-11 -120 -69 -225 -129 -104 -61 -266 -154 -360 -208 -93 -54 -208 -120 -255
-148 -47 -27 -110 -63 -140 -80 -30 -16 -62 -35 -70 -41 -8 -6 -24 -16 -35
-22 -66 -36 -131 -73 -269 -153 -85 -50 -170 -99 -188 -109 -168 -95 -502
-291 -538 -315 -67 -46 -174 -159 -223 -235 -68 -105 -105 -200 -133 -342 -13
-64 -10 -5445 2 -5521 61 -361 354 -652 726 -719 56 -10 221 -14 278 -6 86 13
237 65 310 107 56 33 494 286 535 309 17 9 75 43 130 75 277 160 338 195 343
195 3 0 13 6 21 14 9 7 41 27 71 43 53 29 173 98 525 303 88 51 178 103 200
115 22 12 81 46 130 75 50 29 108 63 130 75 22 13 81 46 130 75 50 29 106 61
125 72 88 50 510 294 553 319 26 16 50 29 54 29 3 0 14 6 22 14 9 7 39 26 66
41 45 25 460 264 545 313 19 12 46 27 60 35 25 13 203 116 508 294 79 46 145
83 147 83 2 0 43 24 92 53 48 30 111 66 138 81 28 16 65 39 83 52 l32 25 0
4027 0 4027 -47 25 c-27 14 -49 28 -51 33 -2 4 -7 7 -12 7 -6 0 -251 138 -300
170 -8 5 -64 37 -125 72 -124 71 -160 92 -299 173 -55 32 -115 62 -135 67 -36
10 -108 18 -113 13z"/>
</g>
</svg>
